<?xml version="1.0" standalone="no"?>
<!DOCTYPE svg PUBLIC "-//W3C//DTD SVG 20010904//EN"
 "http://www.w3.org/TR/2001/REC-SVG-20010904/DTD/svg10.dtd">
<svg version="1.0" xmlns="http://www.w3.org/2000/svg"
 width="110.000000pt" height="68.000000pt" viewBox="0 0 110.000000 68.000000"
 preserveAspectRatio="xMidYMid meet">

<g transform="translate(0.000000,68.000000) scale(0.100000,-0.100000)"
fill="#000000" stroke="none">
<path d="M0 341 l0 -341 550 0 550 0 0 334 0 334 -24 4 c-13 3 -261 6 -550 7
l-526 2 0 -340z m435 229 c22 -9 52 -30 67 -46 76 -81 78 -260 3 -358 l-27
-36 106 0 106 0 0 72 c0 71 0 72 -79 207 -111 193 -111 181 -4 181 l89 0 41
-82 41 -83 17 30 c9 17 30 54 46 83 l29 52 85 0 c96 0 98 -3 60 -65 -13 -22
-37 -62 -52 -89 -15 -27 -32 -56 -38 -65 -65 -106 -65 -106 -65 -201 l0 -91
-392 3 -393 3 -2 245 c-1 171 2 249 10 259 17 20 297 6 352 -19z"/>
<path d="M145 540 c-1 -3 -4 -95 -6 -205 l-4 -200 98 -3 c114 -3 170 9 204 46
44 48 56 82 57 162 0 62 -4 83 -24 120 -35 64 -70 78 -208 82 -63 2 -115 1
-117 -2z m233 -44 c43 -22 60 -47 70 -104 9 -53 2 -125 -18 -161 -5 -11 -22
-29 -36 -40 -23 -18 -41 -21 -126 -21 l-100 0 5 168 c3 92 6 168 6 170 3 10
177 0 199 -12z"/>
<path d="M244 338 l1 -123 45 4 c25 2 53 7 62 12 24 13 41 74 35 132 -6 66
-38 97 -101 97 l-43 0 1 -122z"/>
<path d="M636 473 c21 -38 55 -97 76 -132 35 -58 38 -69 38 -137 0 -67 2 -74
20 -74 18 0 20 7 20 63 0 64 16 113 45 137 8 7 15 16 15 21 0 5 23 45 50 89
53 85 59 100 36 100 -18 0 -47 -36 -110 -135 -57 -90 -45 -94 -129 47 -41 70
-57 88 -75 88 -23 0 -22 -1 14 -67z"/>
</g>
</svg>
