<?xml version="1.0" standalone="no"?>
<!DOCTYPE svg PUBLIC "-//W3C//DTD SVG 20010904//EN"
 "http://www.w3.org/TR/2001/REC-SVG-20010904/DTD/svg10.dtd">
<svg version="1.0" xmlns="http://www.w3.org/2000/svg"
 width="512.000000pt" height="512.000000pt" viewBox="0 0 512.000000 512.000000"
 preserveAspectRatio="xMidYMid meet">

<g transform="translate(0.000000,512.000000) scale(0.100000,-0.100000)"
fill="#000000" stroke="none">
<path d="M2330 5110 c-210 -21 -451 -75 -635 -142 -249 -90 -537 -253 -750
-425 -128 -103 -330 -311 -423 -435 -194 -258 -340 -555 -426 -863 -191 -681
-90 -1405 280 -2016 145 -240 419 -545 637 -708 631 -471 1420 -631 2178 -441
153 39 289 87 316 113 62 57 20 166 -64 167 -18 0 -63 -12 -100 -26 -92 -35
-304 -88 -438 -110 -169 -28 -555 -26 -725 3 -255 45 -464 115 -690 229 -104
52 -302 174 -333 203 -5 5 10 104 32 222 51 267 49 259 64 259 28 0 115 50
150 86 90 94 110 204 63 361 -20 68 -23 88 -14 124 15 66 5 177 -20 226 -58
112 -123 151 -314 189 -126 26 -136 29 -193 74 -268 209 -397 300 -426 300
-17 0 -88 -18 -157 -40 -69 -22 -128 -38 -131 -34 -8 8 -14 221 -7 240 5 13
13 10 41 -15 45 -39 74 -40 288 -6 165 26 190 33 207 65 25 46 12 89 -57 192
-41 60 -63 102 -57 106 101 68 180 132 199 161 12 20 78 133 145 251 99 173
137 230 196 293 103 110 137 182 142 302 7 147 -34 243 -147 348 l-58 53 26
19 c296 224 673 387 1036 449 90 15 355 40 361 33 2 -2 -36 -52 -84 -113 l-87
-109 -200 -70 c-110 -39 -263 -93 -340 -120 -82 -29 -148 -58 -160 -71 -23
-25 -215 -489 -215 -519 0 -26 14 -48 162 -254 l125 -174 -74 -96 c-40 -53
-109 -139 -152 -191 -144 -175 -194 -289 -194 -450 0 -173 50 -297 168 -416
147 -148 324 -193 562 -143 94 20 104 21 126 6 20 -13 25 -26 31 -88 8 -88 29
-138 88 -207 67 -78 72 -122 32 -253 -33 -110 -30 -201 14 -309 176 -442 206
-505 265 -556 95 -81 241 -54 393 74 92 77 129 129 155 215 14 48 37 93 68
134 25 35 55 86 66 114 11 28 45 80 76 116 108 125 125 193 88 346 -33 140
-31 145 150 331 162 168 201 226 201 306 0 94 -58 140 -207 167 -80 15 -91 20
-126 55 -40 42 -96 153 -172 338 -106 262 -145 298 -398 374 -164 50 -227 46
-291 -18 l-33 -34 -56 35 c-52 31 -57 38 -57 70 0 85 -66 145 -178 163 -35 6
-111 7 -188 2 -71 -5 -130 -7 -132 -6 -2 1 6 20 17 42 42 83 136 132 253 132
49 0 62 4 89 28 37 33 43 84 15 126 -22 34 -53 46 -125 46 -129 0 -261 -58
-347 -154 -30 -32 -56 -57 -57 -55 -30 36 -137 197 -137 205 0 11 135 342 143
350 2 2 152 56 332 119 181 64 335 121 343 127 8 7 79 94 158 194 l144 183 38
-5 c315 -44 551 -114 796 -236 579 -290 1017 -807 1203 -1423 l24 -80 -21 -14
c-36 -24 -89 -107 -103 -159 l-13 -51 -32 93 c-40 113 -57 140 -154 254 -107
125 -142 142 -301 142 -137 0 -174 -12 -208 -66 -25 -42 -28 -114 -4 -150 20
-32 17 -37 -81 -104 -61 -42 -208 -120 -228 -120 -2 0 -49 87 -104 193 -91
176 -100 198 -105 261 l-5 69 -98 99 c-117 117 -131 126 -252 168 -82 27 -97
30 -128 20 -43 -14 -66 -48 -66 -96 0 -51 31 -78 131 -114 75 -27 94 -39 154
-98 64 -64 67 -68 67 -115 0 -43 15 -77 126 -290 161 -308 152 -294 191 -312
39 -19 56 -15 183 38 160 66 340 184 425 278 35 39 37 45 33 90 -5 48 -4 49
22 49 32 0 42 -8 112 -90 69 -81 64 -71 144 -291 36 -101 71 -190 78 -198 20
-25 67 -39 100 -30 57 17 186 163 186 213 0 10 2 17 5 14 3 -3 10 -67 15 -144
28 -379 -52 -795 -221 -1151 -148 -314 -339 -564 -606 -794 -66 -57 -93 -88
-98 -110 -14 -63 35 -119 104 -119 54 0 277 199 437 391 167 202 350 518 439
763 237 648 196 1392 -112 2011 -381 764 -1090 1275 -1948 1401 -121 18 -458
26 -575 14z m-1352 -859 c83 -43 132 -122 132 -213 0 -70 -25 -118 -110 -210
-54 -59 -99 -128 -201 -304 -72 -126 -136 -235 -142 -242 -6 -7 -64 -52 -129
-98 -64 -47 -124 -95 -133 -107 -27 -39 -19 -79 35 -158 55 -81 55 -83 -25
-92 -49 -5 -51 -4 -112 51 l-62 57 20 93 c76 373 242 723 483 1022 60 74 195
220 204 220 1 0 19 -9 40 -19z m1242 -907 c0 -53 13 -70 106 -129 218 -141
300 -156 390 -73 l45 41 95 -28 c157 -46 161 -51 256 -277 89 -213 136 -303
195 -367 60 -67 110 -95 203 -114 l65 -13 -126 -124 c-138 -138 -182 -195
-210 -276 -24 -68 -24 -129 1 -224 11 -41 20 -85 20 -97 0 -11 -19 -44 -42
-73 -87 -106 -108 -136 -123 -181 -9 -26 -37 -74 -64 -106 -30 -38 -54 -81
-65 -119 -31 -103 -38 -115 -98 -165 -123 -103 -146 -103 -191 -7 -19 40 -38
84 -42 98 -4 14 -37 95 -72 180 -76 182 -81 224 -44 359 40 146 15 271 -74
370 -39 42 -54 88 -55 157 0 95 -81 189 -187 220 -56 16 -93 14 -222 -13 -237
-50 -430 70 -471 295 -23 129 15 237 136 382 43 53 110 137 147 187 80 108 90
113 252 123 194 12 175 15 175 -26z m-1548 -1203 c107 -81 205 -155 219 -163
13 -9 89 -28 169 -44 127 -24 149 -31 174 -56 29 -29 29 -30 21 -106 -11 -107
-8 -158 15 -228 46 -139 24 -182 -117 -228 -86 -28 -93 -42 -138 -284 -22
-117 -43 -212 -46 -212 -4 0 -53 48 -109 107 -246 257 -429 562 -539 897 -45
137 -102 381 -90 388 7 6 223 76 235 77 6 1 98 -66 206 -148z"/>
<path d="M2630 3933 c-8 -3 -25 -15 -37 -26 -66 -59 -16 -167 77 -167 36 0 86
41 93 77 14 73 -65 141 -133 116z"/>
<path d="M3899 1911 c-13 -10 -41 -54 -64 -97 -26 -50 -51 -85 -70 -97 -138
-84 -154 -98 -182 -144 -25 -43 -28 -58 -29 -143 -1 -71 -6 -111 -23 -159 -49
-140 -35 -228 49 -312 130 -130 273 -69 360 154 42 107 160 504 160 538 0 32
-43 197 -59 227 -27 51 -99 68 -142 33z m-39 -387 c0 -19 -94 -311 -115 -360
-19 -43 -28 -55 -37 -46 -9 9 -3 37 21 116 29 90 32 112 26 168 -7 69 -3 78
60 111 33 18 45 20 45 11z"/>
<path d="M3744 514 c-60 -29 -73 -107 -25 -155 34 -34 77 -38 122 -12 58 35
62 112 7 158 -34 29 -60 31 -104 9z"/>
</g>
</svg>
